#!OML:ASF F:\VICON\USERDATA\INSTALL\rory3\rory3.ASF
:FULLY-SPECIFIED
:DEGREES
54
root 0.2647484742292868 17.794148131572975 12.700593109314717 -1.7176322562741595 -7.746350969463542 -7.208045704129029
lfemur -21.740376902143943 -4.051455811945543 -11.756729509297893
ltibia 18.91882986026489
lfoot -4.859428441692964 -2.3899813682304463
ltoes -8.870686107264335
rfemur 10.135480667705895 7.031373074337042 33.76252211860771
rtibia 32.339475471366576
rfoot -6.382941305933001 -9.467145888568666
rtoes 3.543707711824899
lowerback 9.7004169562876 3.228192523555238 7.055954945584118
upperback -0.0917633473018728 4.696709180836862 1.9093786553144916
thorax -4.980781141344373 2.1126305384776383 -2.1419538140802894
lowerneck -16.10310579072207 -3.053198878776069 -1.770536211662418
upperneck 20.15751874948198 -4.090266513498315 1.2302920896369298
head 9.088131326389776 -1.9088715290484033 0.05923063839282258
lclavicle -1.953461384476923e-15 9.07020620290688e-16
lhumerus -36.64585639890789 7.695634479839931 80.40646121906593
lradius 23.817751852289064
lwrist 2.154367413876003
lhand -25.797874199714396 22.658733395386662
lfingers 7.12502
lthumb 0.586971696444565 52.470267771886874
rclavicle -1.9540940338900157e-15 9.059841860288557e-16
rhumerus -26.756783949491698 -15.4886669367082 -81.07141449609482
rradius 26.26827351225527
rwrist 4.997112772126694
rhand -17.44286630466786 22.98521985624201
rfingers 7.12502
rthumb 8.673537856989668 -7.107918923726606
55
root 0.328322400088472 17.885142761334826 13.68800614678762 -1.8468062599635497 -5.9165487564136185 -4.137026694148173
lfemur -20.227581823937605 -3.9256173774660423 -16.0018456525791
ltibia 21.31446874622938
lfoot -3.654980787085998 -3.317220670010226
ltoes -8.26063123441425
rfemur 8.247124377599658 5.0520175844152195 29.968119887248566
rtibia 39.564985209445325
rfoot -3.8530805601203415 -8.909690179460164
rtoes 5.471956284527321
lowerback 9.335285148278496 3.149223199088547 4.417219684565399
upperback -0.04532008420953121 4.418097360174579 1.2881276586240258
thorax -5.008274491766363 2.0379742873536375 -1.7862991578350744
lowerneck -16.017569094718308 -3.0518295528415593 -1.8063524001393234
upperneck 20.111436611957867 -4.1093482214889585 1.3456196972824606
head 9.088424372771177 -1.9152620066991657 0.10155887043501133
lclavicle -1.953097870536518e-15 9.076656190737432e-16
lhumerus -36.37173364156288 6.742875174215043 80.64798215994321
lradius 24.298874351039355
lwrist 2.052316755115733
lhand -25.765278414878587 22.51659288945681
lfingers 7.12502
lthumb 0.6333556976964247 52.27769819837077
rclavicle -1.9537132164784004e-15 9.063350126408304e-16
rhumerus -27.257072729050783 -16.04752056009059 -80.98763544938879
rradius 25.869854296265867
rwrist 5.3472943952985625
rhand -17.35271804421449 22.62615071602268
rfingers 7.12502
rthumb 8.814325885424344 -7.372438479427865
56
root 0.359304545989675 17.953713536736657 14.533882632278447 -2.7918672278483196 -4.604753113568533 -2.7826055642215426
lfemur -17.88137783284756 -3.4184174894946673 -18.560828988812247
ltibia 23.07648936113287
lfoot -3.426040526198556 -3.0463369007482983
ltoes -7.704456804639362
rfemur 4.377167443823801 3.1709505309105914 27.42425755541324
rtibia 48.17826383964859
rfoot -1.339104304952846 -8.912027244953938
rtoes 6.9202634203887
lowerback 9.492193415533306 2.9993223026394578 2.7898194567868684
upperback -0.12091283120020563 4.203587807721084 0.8205315650312696
thorax -5.165691947812172 1.9529467911088647 -1.4786390294843508
lowerneck -15.94612379562206 -3.025309428963761 -1.8627225938205383
upperneck 20.08813015637561 -4.074792751893565 1.4184720193991724
head 9.084268929402018 -1.8992281851060386 0.14350113246231785
lclavicle -1.953714195994292e-15 9.073362500379203e-16
lhumerus -35.87233138714346 5.682990476894108 80.9227883065129
lradius 25.039364522542318
lwrist 2.4267376495758692
lhand -25.809928647587256 22.563007263644707
lfingers 7.12502
lthumb 0.6023805001720108 52.39009542833139
rclavicle -1.953961976302424e-15 9.06105936348117e-16
rhumerus -27.58538368253349 -16.388063472513515 -80.84635546171769
rradius 25.46344589236298
rwrist 5.582268449694804
rhand -17.28162537372933 22.355697945183508
rfingers 7.12502
rthumb 8.938425444796481 -7.580192157267542
57
root 0.41663466537104854 18.00082839330182 14.989172914523978 -3.1944352884015013 -4.596264588681812 -2.1761725177583253
lfemur -15.27724778950359 -3.146915474675998 -19.94551113912508
ltibia 23.88915065372467
lfoot -3.294732951270689 -2.1933836641058315
ltoes -6.665032628102957
rfemur -1.047085368094237 2.5422159680435437 25.733544235231857
rtibia 57.10848635780879
rfoot -0.027868507815044907 -9.547677278872145
rtoes 6.603452828526783
lowerback 9.61198667339663 2.9253535361217424 1.915906194310947
upperback -0.07269909280547876 4.017905207578655 0.5393444887316847
thorax -5.275944067609988 1.8866563143880029 -1.1164836982734263
lowerneck -15.918527580541863 -2.9693156277076387 -1.9246229868159501
upperneck 20.115048082564748 -3.9756864006119397 1.4395893171798826
head 9.0903935893756 -1.8577505400522005 0.17786418154773692
lclavicle -1.953170826764028e-15 9.078999083218034e-16
lhumerus -35.190270030207685 4.770179734863307 81.09765396291264
lradius 25.876876823994124
lwrist 3.328667284427859
lhand -26.009616509448065 22.718397158795188
lfingers 7.12502
lthumb 0.36732994083243864 52.54730879066088
rclavicle -1.954021694027814e-15 9.060508986378909e-16
rhumerus -27.905943283733237 -16.737187299545553 -80.69807954292882
rradius 25.167049216438294
rwrist 5.760063853630321
rhand -17.18234653075934 22.199887661701602
rfingers 7.12502
rthumb 9.068223740505482 -7.686047359678281
58
root 0.4506067882112018 18.073040602522248 15.501824350583165 -3.8166853861946546 -4.531127315149047 -1.191382085928046
lfemur -12.548632917621028 -3.210420003419533 -21.6049910109409
ltibia 24.0410260153817
lfoot -4.584403611542174 -1.6699269401085277
ltoes -7.893125678262088
rfemur -6.696285426246667 1.949786851623776 24.17741114698168
rtibia 64.63076516960062
rfoot -0.8623410632514741 -10.346362887500481
rtoes 5.3956596732479545
lowerback 9.960653362227001 2.7272178772927465 0.8119852384182703
upperback 0.04106340668499309 3.634592885130086 0.30545809641862776
thorax -5.336503843168316 1.735135175455059 -0.6642943610390718
lowerneck -15.899067549198039 -2.8919107344068915 -1.9824834535252016
upperneck 20.199320112958105 -3.8345924422229287 1.4001865156722824
head 9.115671016913494 -1.799556835833317 0.19605800238899823
lclavicle -1.95307760248603e-15 9.078677526645849e-16
lhumerus -34.50212807219999 3.818499468529386 81.19726788651829
lradius 26.857050056561945
lwrist 4.545082045770789
lhand -26.318907781428695 23.02694626702022
lfingers 7.12502
lthumb -0.007074949724929391 52.70037627510853
rclavicle -1.953925488920331e-15 9.061397991873362e-16
rhumerus -28.31152337433646 -17.008371272918268 -80.59214088934267
rradius 25.083625215623428
rwrist 5.649720595536395
rhand -17.040829190173383 22.124200809748974
rfingers 7.12502
rthumb 9.223536504590419 -7.654641614675118
